<svg width="13" height="23" viewBox="0 0 13 23" fill="none" xmlns="http://www.w3.org/2000/svg">
<path d="M6.60008 19.92C5.30408 19.92 4.16008 19.688 3.16808 19.224C2.17608 18.76 1.40008 18.096 0.840082 17.232C0.280082 16.368 8.20756e-05 15.328 8.20756e-05 14.112V13.44H3.12008V14.112C3.12008 15.12 3.43208 15.88 4.05608 16.392C4.68008 16.888 5.52808 17.136 6.60008 17.136C7.68808 17.136 8.49608 16.92 9.02408 16.488C9.56808 16.056 9.84008 15.504 9.84008 14.832C9.84008 14.368 9.71208 13.992 9.45608 13.704C9.20008 13.416 8.82408 13.184 8.32808 13.008C7.83208 12.816 7.22408 12.64 6.50408 12.48L5.95208 12.36C4.80008 12.104 3.80808 11.784 2.97608 11.4C2.16008 11 1.52808 10.48 1.08008 9.83998C0.648082 9.19998 0.432082 8.36798 0.432082 7.34398C0.432082 6.31998 0.672082 5.44798 1.15208 4.72798C1.64808 3.99198 2.33608 3.43198 3.21608 3.04798C4.11208 2.64798 5.16008 2.44798 6.36008 2.44798C7.56008 2.44798 8.62408 2.65598 9.55208 3.07198C10.4961 3.47198 11.2321 4.07998 11.7601 4.89598C12.3041 5.69598 12.5761 6.70398 12.5761 7.91998V8.63998H9.45608V7.91998C9.45608 7.27998 9.32808 6.76798 9.07208 6.38398C8.83208 5.98398 8.48008 5.69598 8.01608 5.51998C7.55208 5.32798 7.00008 5.23198 6.36008 5.23198C5.40008 5.23198 4.68808 5.41598 4.22408 5.78398C3.77608 6.13598 3.55208 6.62398 3.55208 7.24798C3.55208 7.66398 3.65608 8.01598 3.86408 8.30398C4.08808 8.59198 4.41608 8.83198 4.84808 9.02398C5.28008 9.21598 5.83208 9.38398 6.50408 9.52798L7.05608 9.64798C8.25608 9.90398 9.29608 10.232 10.1761 10.632C11.0561 11.032 11.7361 11.56 12.2161 12.216C12.7121 12.872 12.9601 13.712 12.9601 14.736C12.9601 15.76 12.6961 16.664 12.1681 17.448C11.6561 18.216 10.9201 18.824 9.96008 19.272C9.01608 19.704 7.89608 19.92 6.60008 19.92ZM5.13608 22.368V-1.66893e-05H8.01608V22.368H5.13608Z" fill="#3FB950"/>
</svg>
