<?xml version="1.0" encoding="UTF-8"?>
<svg version="1.1" xmlns="http://www.w3.org/2000/svg" width="1080" height="318">
<path d="M0 0 C0.83660156 0.46148437 1.67320312 0.92296875 2.53515625 1.3984375 C11.06931691 7.01189209 15.40013927 17.22102624 17.63598633 26.92602539 C21.5503688 49.22829174 14.65633392 72.81317829 2 91.125 C-8.13082233 104.1334489 -20.99889748 109.62920261 -37 112 C-50.5965794 113.41504311 -67.65298649 112.15599314 -78.81640625 103.609375 C-86.5964587 96.68630457 -91.15721327 86.28734918 -92 76 C-93.32510206 52.97427252 -89.13420961 30.63089286 -73.625 12.75 C-56.34521533 -5.65297067 -22.70163478 -12.84998195 0 0 Z " fill="#1F6FEB" transform="translate(965,106)"/>
<path d="M0 0 C1.2271875 0.02578125 2.454375 0.0515625 3.71875 0.078125 C5.18763793 0.13176417 6.65638172 0.18942568 8.125 0.25 C9.01960938 0.28673828 9.91421875 0.32347656 10.8359375 0.36132812 C16.93431223 0.62162461 23.02975943 0.9249205 29.125 1.25 C28.795 4.88 28.465 8.51 28.125 12.25 C29.445 12.023125 30.765 11.79625 32.125 11.5625 C36.48501357 11.06284381 39.29029904 11.73750098 43.26171875 13.48046875 C45.82022288 14.53712559 48.39048942 14.90818618 51.125 15.25 C51.455 13.6 51.785 11.95 52.125 10.25 C55.44393565 10.85344284 57.34249769 12.00037489 59.9375 14.125 C63.49119603 16.89044552 66.94694977 18.53401509 71.125 20.25 C79.19890478 24.78035768 79.19890478 24.78035768 82.125 28.25 C82.0625 30.6875 82.0625 30.6875 81.125 33.25 C80.135 34.0853125 80.135 34.0853125 79.125 34.9375 C76.37278488 38.11974873 76.64577331 40.76352646 76.40625 44.859375 C76.05181432 47.87207824 74.70956889 49.70091091 73.125 52.25 C73.145625 53.343125 73.16625 54.43625 73.1875 55.5625 C73.10772049 60.26949121 71.45221644 63.25009674 69.125 67.25 C68.135 67.25 67.145 67.25 66.125 67.25 C66.125 66.26 66.125 65.27 66.125 64.25 C65.815625 64.9925 65.50625 65.735 65.1875 66.5 C61.79323482 71.02568691 56.82053456 72.47984727 51.5 74 C48.36518776 74.32998024 45.27406045 74.31174628 42.125 74.25 C42.125 76.23 42.125 78.21 42.125 80.25 C39.50184968 81.56157516 37.89466564 81.14649988 35 80.8125 C34.08992188 80.71066406 33.17984375 80.60882813 32.2421875 80.50390625 C31.19417969 80.37822266 31.19417969 80.37822266 30.125 80.25 C30.125 80.91 30.125 81.57 30.125 82.25 C29.34125 82.188125 28.5575 82.12625 27.75 82.0625 C26.450625 82.1553125 26.450625 82.1553125 25.125 82.25 C24.465 83.24 23.805 84.23 23.125 85.25 C21.97 85.146875 20.815 85.04375 19.625 84.9375 C14.40017688 84.79628856 11.59920568 87.26366462 7.76171875 90.578125 C4.25300313 94.13362349 1.25482688 97.97603031 -1.76000977 101.95117188 C-7.50818937 109.50563178 -13.90792695 117.5576758 -22.875 121.25 C-25.75 121.125 -25.75 121.125 -27.875 120.25 C-29.68395808 116.63208385 -29.69752173 113.17783927 -28.875 109.25 C-26.6474164 105.47893842 -23.88738654 102.41246986 -20.875 99.25 C-20.33617187 98.61320312 -19.79734375 97.97640625 -19.2421875 97.3203125 C-16.56768997 94.51141811 -14.8235581 93.34585167 -10.8984375 92.94921875 C-9.24714844 92.91248047 -9.24714844 92.91248047 -7.5625 92.875 C-0.91623734 92.69059502 2.36924465 90.56551516 7.296875 86.2578125 C9.33671778 84.28963304 9.33671778 84.28963304 10.125 81.25 C9.34125 80.940625 8.5575 80.63125 7.75 80.3125 C5.125 79.25 5.125 79.25 3.125 78.25 C3.125 77.26 3.125 76.27 3.125 75.25 C-0.57273096 76.70009057 -3.40087632 77.86618559 -6.5 80.375 C-9.04518024 82.38435282 -10.69346698 82.88639623 -13.875 83.25 C-13.875 83.91 -13.875 84.57 -13.875 85.25 C-32.44408694 86.53696642 -32.44408694 86.53696642 -40.73046875 80.26171875 C-46.79746592 74.57045546 -49.03493512 69.45194631 -49.3125 61.125 C-49.36562576 55.05993046 -48.48881709 50.85052919 -44.65625 46.05078125 C-40.05510044 41.39918049 -34.80038422 37.42446152 -28.0625 37.125 C-27.340625 37.16625 -26.61875 37.2075 -25.875 37.25 C-25.730625 36.528125 -25.58625 35.80625 -25.4375 35.0625 C-24.91666667 32.45833333 -24.39583333 29.85416667 -23.875 27.25 C-25.525 26.92 -27.175 26.59 -28.875 26.25 C-28.875 25.26 -28.875 24.27 -28.875 23.25 C-27.555 23.58 -26.235 23.91 -24.875 24.25 C-24.875 24.91 -24.875 25.57 -24.875 26.25 C-23.225 26.58 -21.575 26.91 -19.875 27.25 C-19.545 28.24 -19.215 29.23 -18.875 30.25 C-17.885 30.58 -16.895 30.91 -15.875 31.25 C-15.875 33.23 -15.875 35.21 -15.875 37.25 C-13.895 36.755 -13.895 36.755 -11.875 36.25 C-11.67003906 34.97382813 -11.46507812 33.69765625 -11.25390625 32.3828125 C-10.98194185 30.71351379 -10.70979709 29.04424447 -10.4375 27.375 C-10.30279297 26.53324219 -10.16808594 25.69148438 -10.02929688 24.82421875 C-9.89716797 24.01855469 -9.76503906 23.21289062 -9.62890625 22.3828125 C-9.44823608 21.26737061 -9.44823608 21.26737061 -9.26391602 20.12939453 C-8.875 18.25 -8.875 18.25 -7.875 16.25 C-7.73715351 12.66599115 -7.81882335 9.51556233 -8.5625 6 C-8.875 3.25 -8.875 3.25 -7.76171875 1.59375 C-5.09192659 -0.30771688 -3.26318015 -0.07825372 0 0 Z " fill="#1F6FEB" transform="translate(331.875,96.75)"/>
<path d="M0 0 C1.03330948 0.01273453 2.06661896 0.02546906 3.13124084 0.03858948 C6.41415535 0.0887576 9.69142913 0.20161745 12.97265625 0.31640625 C15.20499797 0.36157438 17.43742683 0.40263487 19.66992188 0.43945312 C25.12690688 0.53839168 30.58062869 0.68875069 36.03515625 0.87890625 C34.78718902 8.95404089 33.18923028 16.87246711 31.28515625 24.81640625 C28.63707686 36.04780136 26.24134381 47.31391645 23.95214844 58.62280273 C23.59685059 60.37185913 23.59685059 60.37185913 23.234375 62.15625 C23.02643311 63.18999756 22.81849121 64.22374512 22.60424805 65.28881836 C22.03515625 67.87890625 22.03515625 67.87890625 21.03515625 70.87890625 C26.31515625 70.87890625 31.59515625 70.87890625 37.03515625 70.87890625 C35.16015625 82.37890625 35.16015625 82.37890625 34.03515625 86.87890625 C28.42515625 86.87890625 22.81515625 86.87890625 17.03515625 86.87890625 C16.70515625 89.84890625 16.37515625 92.81890625 16.03515625 95.87890625 C14.71515625 102.14890625 13.39515625 108.41890625 12.03515625 114.87890625 C-0.83484375 114.87890625 -13.70484375 114.87890625 -26.96484375 114.87890625 C-25.96484375 103.87890625 -25.96484375 103.87890625 -21.96484375 86.87890625 C-37.14484375 86.87890625 -52.32484375 86.87890625 -67.96484375 86.87890625 C-67.63484375 83.90890625 -67.30484375 80.93890625 -66.96484375 77.87890625 C-66.87847656 76.84765625 -66.79210937 75.81640625 -66.703125 74.75390625 C-65.14058271 64.20316195 -58.69167736 57.62063091 -51.81933594 49.95263672 C-49.55687534 47.42270777 -47.35276249 44.84661426 -45.15185547 42.26318359 C-43.67397684 40.52928692 -42.1871839 38.80336701 -40.69921875 37.078125 C-37.4801274 33.32960729 -34.36332204 29.50062451 -31.25 25.6640625 C-28.22619274 21.97863587 -25.13883046 18.34863522 -22.03295898 14.73217773 C-21.60571533 14.23145752 -21.17847168 13.7307373 -20.73828125 13.21484375 C-20.3155896 12.72909882 -19.89289795 12.24335388 -19.45739746 11.7428894 C-17.8977922 9.86886598 -17.8977922 9.86886598 -16.54823303 7.61528015 C-11.871842 0.50308811 -8.27004748 -0.38727867 0 0 Z " fill="#1F6FEB" transform="translate(775.96484375,101.12109375)"/>
<path d="M0 0 C8.15452721 -0.09317588 16.30882751 -0.16400367 24.46375751 -0.20724869 C28.25150328 -0.22801684 32.03888163 -0.25613353 35.82641602 -0.30175781 C39.48988073 -0.34560532 43.15299477 -0.36921783 46.81670189 -0.37950897 C48.20600076 -0.38683135 49.59528307 -0.40112787 50.98443031 -0.42292023 C64.28121647 -0.62298926 74.12083556 1.85405479 84 11 C92.85934626 19.74069431 95.43389824 28.88452401 95.51904297 41.02856445 C95.28381349 52.0774313 91.2485854 60.24180195 83.3125 68.0625 C73.63817078 76.0061006 63.24008188 78.16612206 51.10546875 78.09765625 C50.15811356 78.0962413 49.21075836 78.09482635 48.23469543 78.09336853 C45.21893105 78.08778611 42.20324182 78.07523682 39.1875 78.0625 C37.13867295 78.05748273 35.08984473 78.05292022 33.04101562 78.04882812 C28.02729174 78.03867478 23.01372967 78.01909588 18 78 C18 90.54 18 103.08 18 116 C11.73 116 5.46 116 -1 116 C-1 96.86 -1 77.72 -1 58 C3.5271875 57.99742187 8.054375 57.99484375 12.71875 57.9921875 C15.59905935 57.97722723 18.47914609 57.96050865 21.359375 57.9375 C25.92397283 57.90120188 30.48797157 57.87116862 35.05273438 57.87988281 C38.73608588 57.88650499 42.41823162 57.86383075 46.10133362 57.82144547 C47.50138553 57.81036497 48.90156049 57.80956836 50.30162048 57.81957626 C57.87510869 57.86674262 63.61114697 57.81412322 69.47668457 52.67483521 C74.11110437 47.57944309 75.32258332 44.05965529 75.21875 37.08984375 C74.64734697 31.63090406 72.17206617 27.4358192 68 24 C63.24839587 20.20890565 59.0578771 20.79664978 53.30078125 21.12109375 C17.84049254 22.29651236 17.84049254 22.29651236 8.40893555 13.59594727 C0 4.00593472 0 4.00593472 0 0 Z " fill="#1F6FEB" transform="translate(161,102)"/>
<path d="M0 0 C6.27 0 12.54 0 19 0 C19 37.95 19 75.9 19 115 C12.73 115 6.46 115 0 115 C0 99.16 0 83.32 0 67 C-19.14 67 -38.28 67 -58 67 C-58 82.84 -58 98.68 -58 115 C-64.27 115 -70.54 115 -77 115 C-77.47631558 108.37053564 -77.81720749 101.75134474 -78.04370117 95.10864258 C-78.13821146 92.86013207 -78.26710777 90.61275563 -78.43334961 88.3684082 C-79.27124168 76.74946528 -79.04764117 67.00998095 -71.65335083 57.50479126 C-64.51116921 49.76706315 -57.82075659 46.07693451 -47.27461243 45.23518372 C-40.75847185 45.08045113 -34.31424943 45.41025993 -27.8125 45.8125 C-25.10535078 45.91903077 -22.3976288 45.99683438 -19.68945312 46.07226562 C-13.11140977 46.26342932 -6.57971183 46.63434166 0 47 C0 31.49 0 15.98 0 0 Z " fill="#1F6FEB" transform="translate(614,101)"/>
<path d="M0 0 C1.93359375 1.56640625 1.93359375 1.56640625 4.55859375 4.31640625 C4.55859375 7.31640625 4.55859375 7.31640625 2.94921875 9 C1.88960937 9.86818359 1.88960937 9.86818359 0.80859375 10.75390625 C-1.54844341 12.70842122 -3.63742328 14.53420295 -5.69140625 16.81640625 C-6.26890625 17.31140625 -6.84640625 17.80640625 -7.44140625 18.31640625 C-10.69830024 17.87682547 -11.86615079 16.99992992 -14.62890625 14.94140625 C-23.55545511 8.48509733 -33.77937608 8.25983211 -44.44140625 9.31640625 C-54.26239714 11.11952575 -61.43152231 16.94498822 -67.328125 24.84375 C-73.53622886 34.59934178 -75.14371121 45.10112258 -72.75390625 56.50390625 C-69.95045916 65.79752538 -63.9143777 74.41686767 -55.515625 79.4765625 C-53.52905721 80.38993946 -53.52905721 80.38993946 -50.44140625 81.31640625 C-49.49265625 81.68765625 -48.54390625 82.05890625 -47.56640625 82.44140625 C-44.87119553 83.19606525 -42.93607847 83.39315632 -40.19140625 83.50390625 C-35.02862857 83.97324968 -31.86483072 86.45307142 -27.81640625 89.52734375 C-24.82843811 91.7781487 -21.72363912 93.53258404 -18.44140625 95.31640625 C-18.44140625 95.97640625 -18.44140625 96.63640625 -18.44140625 97.31640625 C-16.46140625 97.81140625 -16.46140625 97.81140625 -14.44140625 98.31640625 C-14.93640625 99.80140625 -14.93640625 99.80140625 -15.44140625 101.31640625 C-28.28486069 107.05346402 -43.36007777 105.45824634 -56.18188477 100.86669922 C-73.24205702 94.32774809 -83.16294918 83.17999957 -90.58203125 66.71484375 C-95.4567082 53.11006354 -95.644224 36.66783866 -90 23.30078125 C-87.55442015 18.61801682 -84.72496395 14.44584533 -81.44140625 10.31640625 C-80.35859375 8.80046875 -80.35859375 8.80046875 -79.25390625 7.25390625 C-58.723277 -16.36302675 -24.63467607 -16.98807261 0 0 Z " fill="#1F6FEB" transform="translate(526.44140625,111.68359375)"/>
<path d="M0 0 C2.94907713 0.73726928 4.01835822 1.22674589 5.75 3.6875 C13.27214106 26.25392318 3.41265941 60.69815354 -6.1875 81.5625 C-8.72305884 86.24863755 -11.53217026 90.05788998 -16.25 92.6875 C-19 93.3125 -19 93.3125 -21.25 92.6875 C-27.654748 86.054011 -25.54575596 74.99236325 -25.4609375 66.484375 C-24.98675508 45.30422691 -19.88433449 17.91452409 -4.984375 2.05859375 C-3.25 0.6875 -3.25 0.6875 0 0 Z " fill="#040404" transform="translate(937.25,112.3125)"/>
<path d="M0 0 C3.68760961 1.26683187 6.82534444 3.02865021 9.828125 5.51171875 C17.76121832 10.94788522 30.67908453 12.1301507 40 14 C40 14.66 40 15.32 40 16 C40.598125 16.2475 41.19625 16.495 41.8125 16.75 C44.51690582 18.29537476 45.56742238 19.20647365 47 22 C47.85578346 26.88354692 47.54809181 30.07509507 45 34.375 C39.59582185 39.10365588 34.40564896 40.43370565 27.296875 40.1640625 C26.53890625 40.10992187 25.7809375 40.05578125 25 40 C24.22140625 39.94585937 23.4428125 39.89171875 22.640625 39.8359375 C18.16934364 39.4308214 14.21978109 38.62299273 10 37 C10 36.34 10 35.68 10 35 C8.865625 34.938125 7.73125 34.87625 6.5625 34.8125 C0.17982745 33.99624347 -5.17131638 31.23505776 -9.25 26.25 C-9.8275 25.1775 -10.405 24.105 -11 23 C-11.89456414 21.39512522 -12.79045938 19.79099187 -13.6875 18.1875 C-14.31205078 17.03314453 -14.31205078 17.03314453 -14.94921875 15.85546875 C-15.86485015 14.0462025 -15.86485015 14.0462025 -17 13 C-17.41194057 10.04775928 -17.5560236 7.90042627 -15.953125 5.3046875 C-11.17225424 -0.51672572 -7.22495584 -0.78164727 0 0 Z " fill="#090909" transform="translate(344,129)"/>
<path d="M0 0 C25.41 0 50.82 0 77 0 C77 6.27 77 12.54 77 19 C51.59 19 26.18 19 0 19 C0 12.73 0 6.46 0 0 Z " fill="#1F6FEB" transform="translate(68,151)"/>
<path d="M0 0 C25.08 0 50.16 0 76 0 C76 6.6 76 13.2 76 20 C68.74950486 20.41104173 61.50562385 20.73918329 54.24583626 20.93261909 C50.8704678 21.02564647 47.50999894 21.16092841 44.13818359 21.35791016 C20.636576 22.69511579 20.636576 22.69511579 12.10058594 15.98339844 C7.57572347 11.79009711 3.30227411 7.23494422 0 2 C0 1.34 0 0.68 0 0 Z " fill="#1F6FEB" transform="translate(69,102)"/>
<path d="M0 0 C1.04590805 0.00222061 2.0918161 0.00444122 3.16941833 0.00672913 C4.35056717 0.00680466 5.531716 0.00688019 6.74865723 0.00695801 C8.03404892 0.01211929 9.31944061 0.01728058 10.64378357 0.02259827 C11.95193527 0.02401321 13.26008698 0.02542816 14.60787964 0.02688599 C18.09150591 0.03071042 21.57509071 0.04054005 25.05870056 0.05158997 C28.6111444 0.06180569 32.16359491 0.06638395 35.71604919 0.07142639 C42.69067736 0.0821624 49.66527108 0.09975859 56.63987732 0.12025452 C56.63987732 6.39025452 56.63987732 12.66025452 56.63987732 19.12025452 C31.22987732 19.12025452 5.81987732 19.12025452 -20.36012268 19.12025452 C-18.61245106 15.62491128 -17.66095905 14.20971641 -14.91871643 11.70228577 C-14.25291565 11.08804749 -13.58711487 10.4738092 -12.90113831 9.84095764 C-12.20697815 9.21125061 -11.51281799 8.58154358 -10.79762268 7.93275452 C-10.09959534 7.29144592 -9.40156799 6.65013733 -8.68238831 5.98939514 C-7.39700347 4.80873613 -6.10938355 3.63050273 -4.81886292 2.45545959 C-2.26214721 0.11526241 -2.26214721 0.11526241 0 0 Z " fill="#1F6FEB" transform="translate(88.36012268066406,198.87974548339844)"/>
<path d="M0 0 C3.86920067 2.28993509 6.06284398 4.81318797 8.0625 8.8125 C8.87377806 15.04775134 8.39304754 19.95606854 4.66796875 25.12109375 C0.05211574 29.98402405 -5.86813955 31.50304404 -12.41015625 31.90625 C-18.07229971 31.69621686 -22.33119798 30.30126773 -26.5 26.4375 C-28.69383676 20.90521601 -28.67026108 15.68206579 -27.9375 9.8125 C-25.6694753 4.840292 -22.63396664 2.5104702 -17.9375 -0.1875 C-12.32042256 -2.05985915 -5.57817104 -2.14172728 0 0 Z " fill="#1F6FEB" transform="translate(844.9375,186.1875)"/>
<path d="M0 0 C0.98697019 3.47537563 0.84855779 5.28200384 -0.25 8.75 C-1.59509421 13.33914495 -2.60407109 17.92006662 -3.4375 22.625 C-4.96425688 31.16986336 -6.96093042 39.56247071 -9 48 C-18.24 48 -27.48 48 -37 48 C-35.17242442 43.43106104 -33.23398699 40.63412787 -30.0625 37.0625 C-26.12778224 32.52518534 -22.30913501 27.93072232 -18.625 23.1875 C-12.5354619 15.36143977 -6.27306028 7.67926298 0 0 Z " fill="#060606" transform="translate(767,124)"/>
<path d="M0 0 C0.495 1.485 0.495 1.485 1 3 C0.505 3.433125 0.01 3.86625 -0.5 4.3125 C-2.33218192 5.99740483 -2.33218192 5.99740483 -2 9 C-3.12241069 10.19043558 -4.2575871 11.37104673 -5.44921875 12.4921875 C-8.50711375 15.46535493 -11.21443451 18.77398185 -14 22 C-25.7875055 35.65134184 -25.7875055 35.65134184 -33 39 C-35.875 38.875 -35.875 38.875 -38 38 C-39.80895808 34.38208385 -39.82252173 30.92783927 -39 27 C-36.7724164 23.22893842 -34.01238654 20.16246986 -31 17 C-30.46117187 16.36320312 -29.92234375 15.72640625 -29.3671875 15.0703125 C-26.69268997 12.26141811 -24.9485581 11.09585167 -21.0234375 10.69921875 C-19.37214844 10.66248047 -19.37214844 10.66248047 -17.6875 10.625 C-10.21051003 10.42618986 -6.07204125 7.29963285 -1 2 C-0.67 1.34 -0.34 0.68 0 0 Z " fill="#1F6FEB" transform="translate(342,179)"/>
<path d="M0 0 C7.30068442 0.69582923 14.2421785 3.06534955 20.625 6.625 C22.375 8.8125 22.375 8.8125 22.875 12.1875 C22.35177032 15.98091516 21.2990062 18.52565607 19.375 21.8125 C13.49828781 22.18414978 9.24990975 20.95846438 3.8125 18.8125 C-1.17220984 16.85563778 -5.16012468 15.39810187 -10.625 15.8125 C-11.45333188 10.42834275 -9.65647835 6.88619547 -6.578125 2.62109375 C-4.25513796 0.47000775 -3.13590793 0.1264479 0 0 Z " fill="#0A0A0A" transform="translate(360.625,113.1875)"/>
<path d="M0 0 C3 1 3 1 4 3 C4.375 5.875 4.375 5.875 4 9 C1.19902821 12.03209323 -1.03075525 13.23497937 -5.06640625 13.57421875 C-6.56450883 13.63087522 -8.06345071 13.66819894 -9.5625 13.6875 C-15.84668796 13.82881803 -15.84668796 13.82881803 -22 15 C-23.55460305 11.89079391 -23.72720693 8.36916972 -23 5 C-20.809268 2.72737148 -19.44592339 2.06018995 -16.30859375 1.63671875 C-15.36113281 1.65347656 -14.41367187 1.67023438 -13.4375 1.6875 C-12.01244141 1.69330078 -12.01244141 1.69330078 -10.55859375 1.69921875 C-8 2 -8 2 -5 4 C-3.34450469 4.38499891 -1.6777567 4.72793135 0 5 C0 3.35 0 1.7 0 0 Z " fill="#1F6FEB" transform="translate(367,182)"/>
<path d="M0 0 C0.33 0.66 0.66 1.32 1 2 C2.32 2 3.64 2 5 2 C5 1.34 5 0.68 5 0 C8.63 0 12.26 0 16 0 C16 0.66 16 1.32 16 2 C12.53846154 5 12.53846154 5 10 5 C10 6.65 10 8.3 10 10 C6.28400809 10.20086443 5.22791555 10.1519437 2 8 C-0.60961678 7.75771347 -0.60961678 7.75771347 -3.4375 7.875 C-4.38496094 7.89304688 -5.33242188 7.91109375 -6.30859375 7.9296875 C-7.64083984 7.96449219 -7.64083984 7.96449219 -9 8 C-10.32 8 -11.64 8 -13 8 C-11.875 6 -11.875 6 -10 4 C-6.87376745 3.68099668 -4.82883747 3.58558126 -2 5 C-1.34 3.35 -0.68 1.7 0 0 Z " fill="#212121" transform="translate(357,177)"/>
<path d="M0 0 C3 1 3 1 4 3 C4.375 5.875 4.375 5.875 4 9 C1.05948526 12.30732742 -1.3607333 13.26390742 -5.64453125 13.609375 C-7.36656165 13.67535318 -9.08943797 13.72173202 -10.8125 13.75 C-11.69615234 13.77964844 -12.57980469 13.80929688 -13.49023438 13.83984375 C-15.65967218 13.9102039 -17.82983948 13.95740607 -20 14 C-19.67 13.34 -19.34 12.68 -19 12 C-14.05 12 -9.1 12 -4 12 C-4 11.34 -4 10.68 -4 10 C-3.34 10 -2.68 10 -2 10 C-1.34 6.7 -0.68 3.4 0 0 Z " fill="#1F6FEB" transform="translate(367,182)"/>
<path d="M0 0 C0.99 1.32 1.98 2.64 3 4 C-0.20093937 7.20093937 -4.66157218 7.85960658 -9.08203125 8.125 C-10.7218836 8.125 -12.36156928 8.06826795 -14 8 C-14 9.98 -14 11.96 -14 14 C-14.33 14 -14.66 14 -15 14 C-15 11.69 -15 9.38 -15 7 C-17.31 7 -19.62 7 -22 7 C-22 6.34 -22 5.68 -22 5 C-20.85724609 5.06960937 -20.85724609 5.06960937 -19.69140625 5.140625 C-12.51206708 5.39158817 -7.22887859 4.68406359 -1 1 C-0.67 0.67 -0.34 0.34 0 0 Z " fill="#1F6FEB" transform="translate(388,163)"/>
<path d="M0 0 C0.66 0.66 1.32 1.32 2 2 C0.68 2.33 -0.64 2.66 -2 3 C-1.67 4.32 -1.34 5.64 -1 7 C-5.62 6.34 -10.24 5.68 -15 5 C-15 4.67 -15 4.34 -15 4 C-13.35 3.67 -11.7 3.34 -10 3 C-10.99 2.67 -11.98 2.34 -13 2 C-12.67 1.34 -12.34 0.68 -12 0 C-7.83270687 -1.34824189 -4.24205028 -0.88042553 0 0 Z " fill="#1F6FEB" transform="translate(372,109)"/>
<path d="M0 0 C0.33 0.66 0.66 1.32 1 2 C1.99 2 2.98 2 4 2 C4 2.66 4 3.32 4 4 C2.68 4 1.36 4 0 4 C0 4.99 0 5.98 0 7 C-1.41633336 7.16947579 -2.83308533 7.33545507 -4.25 7.5 C-5.43335938 7.63921875 -5.43335938 7.63921875 -6.640625 7.78125 C-9 8 -9 8 -13 8 C-11.875 6 -11.875 6 -10 4 C-6.87376745 3.68099668 -4.82883747 3.58558126 -2 5 C-1.34 3.35 -0.68 1.7 0 0 Z " fill="#454545" transform="translate(357,177)"/>
<path d="M0 0 C0.66 0.66 1.32 1.32 2 2 C1.65561395 6.13263259 -0.06429969 9.38108204 -2 13 C-2.99 13 -3.98 13 -5 13 C-3.91343356 8.06866002 -2.8990762 4.21683811 0 0 Z " fill="#1F6FEB" transform="translate(403,151)"/>
<path d="M0 0 C2.64 0 5.28 0 8 0 C8.33 1.32 8.66 2.64 9 4 C6.29120665 5.35439668 3.99066732 5.06501451 1 5 C0.67 3.35 0.34 1.7 0 0 Z " fill="#1F6FEB" transform="translate(370,155)"/>
<path d="M0 0 C3.23490776 0.55774272 4.97855006 1.37211508 7 4 C7 4.99 7 5.98 7 7 C5.00045254 7.04254356 2.99958364 7.04080783 1 7 C0 6 0 6 -0.0625 2.9375 C-0.041875 1.968125 -0.02125 0.99875 0 0 Z " fill="#1F6FEB" transform="translate(337,141)"/>
<path d="M0 0 C1.32 0.33 2.64 0.66 4 1 C4 1.66 4 2.32 4 3 C5.65 3.33 7.3 3.66 9 4 C9.33 5.32 9.66 6.64 10 8 C8.02 8.66 6.04 9.32 4 10 C4.33 8.02 4.66 6.04 5 4 C3.35 3.67 1.7 3.34 0 3 C0 2.01 0 1.02 0 0 Z " fill="#1F6FEB" transform="translate(303,120)"/>
<path d="M0 0 C0.33 0.66 0.66 1.32 1 2 C1.66 2.33 2.32 2.66 3 3 C2.34 3 1.68 3 1 3 C1 3.66 1 4.32 1 5 C-2.14551106 7.87589583 -5.04523117 9.50360098 -9 11 C-9.66 11.66 -10.32 12.32 -11 13 C-11 12.34 -11 11.68 -11 11 C-12.32 10.67 -13.64 10.34 -15 10 C-14.40832031 9.84144531 -13.81664062 9.68289062 -13.20703125 9.51953125 C-7.90474814 7.95393053 -4.61008638 6.39979278 -1 2 C-0.67 1.34 -0.34 0.68 0 0 Z " fill="#282828" transform="translate(851,207)"/>
<path d="M0 0 C2.97 0 5.94 0 9 0 C9 0.33 9 0.66 9 1 C6.36 1.33 3.72 1.66 1 2 C1 2.66 1 3.32 1 4 C2.32 4 3.64 4 5 4 C5 4.99 5 5.98 5 7 C3.35 7 1.7 7 0 7 C-0.66 5.68 -1.32 4.36 -2 3 C-1.34 3 -0.68 3 0 3 C0 2.01 0 1.02 0 0 Z " fill="#1F6FEB" transform="translate(353,156)"/>
<path d="M0 0 C0.66 0.33 1.32 0.66 2 1 C1.67 1.99 1.34 2.98 1 4 C1.66 4.33 2.32 4.66 3 5 C2.05125 5.28875 1.1025 5.5775 0.125 5.875 C-3.05211578 6.76825109 -3.05211578 6.76825109 -5 9 C-5.99 8.67 -6.98 8.34 -8 8 C-5.36 5.36 -2.72 2.72 0 0 Z " fill="#1F6FEB" transform="translate(316,191)"/>
<path d="M0 0 C1.32 0.66 2.64 1.32 4 2 C2.88671875 3.48828125 2.88671875 3.48828125 1 5 C-1.91796875 5.29296875 -1.91796875 5.29296875 -5.1875 5.1875 C-6.27417969 5.16042969 -7.36085938 5.13335937 -8.48046875 5.10546875 C-9.31191406 5.07066406 -10.14335937 5.03585938 -11 5 C-11 4.67 -11 4.34 -11 4 C-7.7 4 -4.4 4 -1 4 C-0.67 2.68 -0.34 1.36 0 0 Z " fill="#2A2A2A" transform="translate(330,185)"/>
<path d="M0 0 C0.93065133 2.60582371 1.14917407 3.64198224 0.0625 6.25 C-0.4634375 7.11625 -0.4634375 7.11625 -1 8 C-1.33 7.34 -1.66 6.68 -2 6 C-3.65 7.32 -5.3 8.64 -7 10 C-5.33248852 6.05860922 -2.77289351 3.2107188 0 0 Z " fill="#3A3A3A" transform="translate(767,124)"/>
<path d="M0 0 C0.66 0.33 1.32 0.66 2 1 C-1.3 4.3 -4.6 7.6 -8 11 C-8.66 10.67 -9.32 10.34 -10 10 C-7.02911382 6.00073014 -3.87051275 3.07881696 0 0 Z " fill="#1F6FEB" transform="translate(456,111)"/>
<path d="M0 0 C0.33 0.66 0.66 1.32 1 2 C0.67 2.66 0.34 3.32 0 4 C0.99 4 1.98 4 3 4 C3.33 3.34 3.66 2.68 4 2 C4 2.99 4 3.98 4 5 C3.01 5 2.02 5 1 5 C0.67 5.99 0.34 6.98 0 8 C-1.65 7.67 -3.3 7.34 -5 7 C-3.35 4.69 -1.7 2.38 0 0 Z " fill="#2E2E2E" transform="translate(398,160)"/>
<path d="M0 0 C0.33 0.66 0.66 1.32 1 2 C1.99 2 2.98 2 4 2 C4 2.66 4 3.32 4 4 C2.68 4 1.36 4 0 4 C0 4.99 0 5.98 0 7 C-1.32 7 -2.64 7 -4 7 C-4 6.34 -4 5.68 -4 5 C-3.34 5 -2.68 5 -2 5 C-1.34 3.35 -0.68 1.7 0 0 Z " fill="#696969" transform="translate(357,177)"/>
<path d="M0 0 C3.0831351 1.19899698 6.06279492 2.47700477 9 4 C9 4.66 9 5.32 9 6 C5.21213403 5.4739075 2.82847776 4.61896089 0 2 C0 1.34 0 0.68 0 0 Z " fill="#3E3E3E" transform="translate(338,169)"/>
<path d="M0 0 C0.66 0.99 1.32 1.98 2 3 C1.34 3.66 0.68 4.32 0 5 C0 5.66 0 6.32 0 7 C-2.49064888 7.68707555 -4.37886292 8 -7 8 C-4.69 5.36 -2.38 2.72 0 0 Z " fill="#1F6FEB" transform="translate(756,113)"/>
<path d="M0 0 C2.72869407 0.03287583 5.2966618 0.56397771 8 1 C7.67 1.99 7.34 2.98 7 4 C5.68 4 4.36 4 3 4 C3 3.34 3 2.68 3 2 C1.35 2 -0.3 2 -2 2 C-1.34 1.34 -0.68 0.68 0 0 Z " fill="#242424" transform="translate(351,162)"/>
<path d="M0 0 C1.98 0.99 3.96 1.98 6 3 C5.34 4.32 4.68 5.64 4 7 C1.525 6.01 1.525 6.01 -1 5 C-0.34 4.67 0.32 4.34 1 4 C0.67 2.68 0.34 1.36 0 0 Z " fill="#1F6FEB" transform="translate(338,171)"/>
<path d="M0 0 C2.31 0 4.62 0 7 0 C6.67 0.99 6.34 1.98 6 3 C4.02 3 2.04 3 0 3 C0 2.01 0 1.02 0 0 Z " fill="#1F6FEB" transform="translate(371,157)"/>
<path d="M0 0 C0 0.99 0 1.98 0 3 C-2.31 3.66 -4.62 4.32 -7 5 C-7 4.01 -7 3.02 -7 2 C-4.35261084 0.5393715 -3.10551666 0 0 0 Z " fill="#5A5A5A" transform="translate(300,142)"/>
<path d="M0 0 C0.66 0 1.32 0 2 0 C1.8125 2.375 1.8125 2.375 1 5 C-1.5625 6.3125 -1.5625 6.3125 -4 7 C-2.92598892 4.08482708 -2.22189824 2.22189824 0 0 Z " fill="#1F6FEB" transform="translate(822,189)"/>
<path d="M0 0 C0 1.66666667 0 3.33333333 0 5 C-1.96147874 6.38938077 -3.96166576 7.7260411 -6 9 C-4.68775452 5.06326356 -3.08089673 2.77280706 0 0 Z " fill="#1F6FEB" transform="translate(718,159)"/>
<path d="M0 0 C1.98 0 3.96 0 6 0 C6 0.99 6 1.98 6 3 C4.35 3 2.7 3 1 3 C0.67 2.01 0.34 1.02 0 0 Z " fill="#1F6FEB" transform="translate(352,160)"/>
</svg>
